<?xml version="1.0" encoding="UTF-8"?>
<svg xmlns="http://www.w3.org/2000/svg" width="168.345" height="231.293" xmlns:xlink="http://www.w3.org/1999/xlink" viewBox="0 0 168.345 231.293">
  <defs>
    <style>
      .uuid-9d151923-732c-4dfd-aeb7-29ee6757e4bb {
        opacity: .071;
      }

      .uuid-94848b84-a873-4cfb-b541-5cb8412289cb {
        fill: url(#uuid-d6775d51-2188-4567-b010-cb5376398073);
      }

      .uuid-94848b84-a873-4cfb-b541-5cb8412289cb, .uuid-d39f1fc4-a1ae-423b-bfa7-80f5c1493476, .uuid-7971283c-8381-42a2-b079-6a563eb2290d {
        mix-blend-mode: color-dodge;
      }

      .uuid-3902b084-74f6-4eee-93ba-a604d94236dd {
        fill: url(#uuid-b466349f-5679-473c-9dc6-3b8f830d1965);
      }

      .uuid-bb72371f-e314-40b6-aab6-bdeb71ebb452 {
        fill: url(#uuid-28d2c576-8095-4c93-8c42-5f5e8030878b);
      }

      .uuid-2a1103de-ca60-4973-80a4-fd95b4d1be6c {
        fill: url(#uuid-a440d2eb-f237-4c79-b406-8cfde87328d7);
      }

      .uuid-f7a4946a-2586-4a98-9018-baf93e164ef6 {
        fill: url(#uuid-73292f16-246a-4aec-9c29-f06eb4738797);
      }

      .uuid-3757d090-3675-40ce-9790-2a46f29f34fd {
        fill: url(#uuid-7c2c9026-f4be-46fc-947d-3bbd548d6d14);
      }

      .uuid-076a887a-5e5b-4be4-9400-33768b911ef3 {
        fill: url(#uuid-f0c951a5-95ef-4ad9-b6dd-2456999dedfa);
      }

      .uuid-26b44f91-db02-4e89-b8ee-6f924ec75508 {
        fill: url(#uuid-3e4111c9-e12d-47bb-ab1f-d5c833efb770);
      }

      .uuid-518c76e1-271e-4ba2-9024-6b2b236e6d5f {
        fill: url(#uuid-6351c345-a8b1-4cc6-a706-c47da373cf38);
      }

      .uuid-b26b1cb9-5c6e-4b4e-ba42-fe0f1e6397d9 {
        fill: url(#uuid-e490063a-6cc0-4fb5-ad79-3af69a9aa227);
      }

      .uuid-818ef53a-e553-4976-81b6-e7c433692733 {
        isolation: isolate;
      }

      .uuid-2e3f2e83-5a69-4d8a-bc60-e565185d055c {
        fill: url(#uuid-157b59b8-93be-4b5f-90ed-1208f5302962);
      }

      .uuid-7d90ae8b-4937-4c2d-a6f6-b544f22f4348 {
        fill: url(#uuid-67edb319-cf3e-4300-bd03-98c46ae9c974);
      }

      .uuid-f71e7f2f-edaf-46c9-a9cf-5dd94ce09b28 {
        opacity: .02;
      }

      .uuid-894bc340-42ff-4993-9120-9c399f7693e6 {
        opacity: .2;
      }

      .uuid-fbce1c5a-07f1-46ea-8f8c-64559a2fcb39 {
        opacity: .147;
      }

      .uuid-18d2a7ce-decd-4656-815b-4e65949b3727 {
        fill: url(#uuid-690d3028-fbc5-4ba0-9a7b-fb2e0b4089d1);
      }

      .uuid-d39f1fc4-a1ae-423b-bfa7-80f5c1493476 {
        fill: url(#uuid-b9dedc1d-23a1-4d4f-a20a-fa287aae6f8c);
      }

      .uuid-41061b69-1274-41a9-8378-16d304271fe2 {
        fill: url(#uuid-1bfb762c-4e14-4d79-9b1f-8f093eaf9d80);
      }

      .uuid-46aefd09-9e97-4d00-8e1d-7e4814789eb4 {
        fill: url(#uuid-cc3706ec-9659-4b3b-86d6-28bf7ecea15b);
      }

      .uuid-c97d238b-73e6-4ecc-ae80-3381ccc1eea4 {
        fill: url(#uuid-d69e35b8-4c96-4e55-acd4-0fd11ead4c71);
      }

      .uuid-55e92500-fc62-4962-ac66-9efc73ffafb7 {
        opacity: .096;
      }

      .uuid-2c396b94-7fa9-45d6-91c0-e6c9a249ae6a {
        fill: url(#uuid-881d456b-3143-4e03-9d33-91abc23647e0);
      }

      .uuid-e07c5080-c806-476b-bff5-f87023b541de {
        fill: url(#uuid-f760b661-d9fe-4bd9-ba5b-2de45096f8cb);
      }

      .uuid-96c13292-1810-4d56-8b33-9636663fafe2 {
        opacity: .249;
      }

      .uuid-b58d3110-3c31-4d8a-8a49-ae09b0bc50d4 {
        fill: url(#uuid-789e0ffe-9e2f-4555-ab96-9a5ddbb0875b);
      }

      .uuid-b7cf2c53-92d2-4915-9fcf-ae752d1cdd04 {
        fill: url(#uuid-94aa5b88-0c46-4a9d-a848-03c5187739ce);
      }

      .uuid-75672a6c-2dbe-48c5-b798-d28035a16d6e {
        fill: url(#uuid-d536b44c-1ecf-4a92-823b-76cd205e6233);
      }

      .uuid-d57bd799-4c66-4eb7-b297-047ae0a5f11b {
        fill: url(#uuid-72521fae-4df8-4575-bfab-edce27856856);
      }

      .uuid-844ee4bf-77c7-4685-a9c7-5893008555df {
        fill: url(#uuid-58ea550f-cca9-45b8-8b8e-f54e0e88b13d);
      }

      .uuid-146d3dc2-00a0-474e-9d5e-e62580c74b3f {
        fill: url(#uuid-c321ad28-271b-48ea-8ada-6a7ff46589db);
      }

      .uuid-ec7fe1b0-49f5-4ece-9c06-e35283eddb55 {
        fill: url(#uuid-03ad411f-e1bb-4915-87d7-71d56d1c46c6);
      }

      .uuid-3e49e8e0-435a-4ec5-ba36-ca4ee25b5205 {
        fill: url(#uuid-df7b9d69-f45d-4df9-a8f0-8a005fb056a6);
      }

      .uuid-afc48724-97a0-4c24-900c-1cd25078107f {
        opacity: .224;
      }

      .uuid-6db701e8-b21e-4363-9392-c6ddc3a23b8b {
        opacity: .3;
      }

      .uuid-303534d5-5e8e-413c-858c-00343f2d23da {
        fill: url(#uuid-e4512dbc-c938-433b-a3c8-66a26cb7e706);
      }

      .uuid-b04101cc-8f23-4a84-97c6-621a3308b262 {
        opacity: .198;
      }

      .uuid-0c9d4e27-927d-4b4e-9f64-ab09dc12392a {
        fill: url(#uuid-187f3c65-c182-4dda-a84f-35aab8dc3e8c);
      }

      .uuid-5f094306-a4bf-4e75-a4d8-92a849d45fea {
        fill: url(#uuid-0d704d85-1206-4785-bb30-4daeaecd2fab);
      }

      .uuid-0348fed3-8346-43f5-983c-83b61ff74c55 {
        fill: url(#uuid-5282a428-11d5-40b2-9ea1-36a30a69c19e);
      }

      .uuid-83bf4029-0181-4c8f-aa23-ce79f959a48f {
        fill: url(#uuid-4e18fbcb-297f-45cf-8cbb-cc91b8d87f1b);
      }

      .uuid-7182bd70-b338-4440-9419-f2971473aa23 {
        fill: url(#uuid-73233ab1-5a05-4bc3-b664-0a3d09c08be6);
      }

      .uuid-7971283c-8381-42a2-b079-6a563eb2290d {
        fill: url(#uuid-d3959181-5179-424b-aac4-3d6a5117e7a8);
      }

      .uuid-b616222a-68c4-491e-99b0-8016adbd2beb {
        fill: url(#uuid-eeffabc0-cacf-491d-870e-92221207b9a0);
      }

      .uuid-53fd1d8a-9604-4545-982a-62ad94bcd5c3 {
        fill: url(#uuid-41615aa7-7f43-48da-b110-419b9a784681);
      }

      .uuid-0d1ca2d9-8ec4-4787-b812-84c92cc7bb67 {
        opacity: .122;
      }

      .uuid-2b077279-bf1b-4210-b4d0-9542c0c5c03b {
        fill: url(#uuid-6a7402de-b7bf-465b-a339-9e4e7121616f);
      }

      .uuid-145ebb53-7d0c-4401-b4ad-c0f48946f6c7 {
        opacity: .275;
      }

      .uuid-b4d5a7c2-6783-4d2d-8fd0-fc441c202f6d {
        fill: url(#uuid-b9ad6b37-df8e-4398-80e6-63c06ad52b84);
      }

      .uuid-802e84cc-f4b5-422b-a056-920a4e535e72 {
        fill: url(#uuid-b57a0b43-c64f-44a3-9f9d-fccd5bd646ad);
      }

      .uuid-c3a5e21a-d99f-4201-8d59-e407715c60e1 {
        fill: url(#uuid-693b9bb1-ceb5-4064-8af2-bdb3e2f886a1);
      }

      .uuid-bf4c006e-f746-429f-a9a3-d9dc35af7602 {
        opacity: .045;
      }

      .uuid-d69ffa52-3e07-4416-85e0-ae2572916173 {
        opacity: .173;
      }

      .uuid-3d3b2797-e164-48d5-ad2d-970b056a039d {
        fill: url(#uuid-680fac0e-92e0-4f7c-a911-0f88eaeb5956);
      }

      .uuid-2a694d27-940d-4d09-bdaf-404e19a555bb {
        fill: url(#uuid-ea263ab2-8238-4024-b3de-b2c399b80cb5);
      }

      .uuid-9b1faab9-1a2c-40c0-9b9c-eaf24222731d {
        fill: url(#uuid-228230e9-c076-49f2-885a-d23baf55de3b);
      }

      .uuid-c39240a4-0ebf-4dd3-99ae-2d158ee50c0c {
        fill: url(#uuid-0c832360-b2d6-4e64-a8f3-4c7d8cb412bd);
      }

      .uuid-27ff1079-4394-4ee0-96be-e3c349bd9aaf {
        fill: url(#uuid-8fe762ee-fbd6-4e86-b018-40a4ab1473ae);
      }

      .uuid-2ec554a3-fbdd-4326-85e8-74c3c3f82aa1 {
        fill: url(#uuid-3fafbc1b-184a-4723-beb8-7b3b44c4bd1d);
      }

      .uuid-c871eef8-cbcc-4e01-8816-d2e83916e98d {
        fill: url(#uuid-74472a58-0f25-485c-8525-cb6027919cf3);
      }

      .uuid-513d5cb5-9293-4201-bbb6-ed02c62e8d1b {
        fill: url(#uuid-35887e19-0eb4-48af-878f-5a30ed3c1aab);
      }
    </style>
    <linearGradient id="uuid-d69e35b8-4c96-4e55-acd4-0fd11ead4c71" x1="88.318" y1="145.161" x2="60.765" y2="117.224" gradientUnits="userSpaceOnUse">
      <stop offset=".035" stop-color="#4a4a54"/>
      <stop offset=".909" stop-color="#d4d1d8"/>
    </linearGradient>
    <linearGradient id="uuid-f760b661-d9fe-4bd9-ba5b-2de45096f8cb" x1="56.823" y1="141.032" x2="93.455" y2="132.821" xlink:href="#uuid-d69e35b8-4c96-4e55-acd4-0fd11ead4c71"/>
    <linearGradient id="uuid-ea263ab2-8238-4024-b3de-b2c399b80cb5" x1="23.2" y1="181.875" x2="-10.977" y2="158.705" xlink:href="#uuid-d69e35b8-4c96-4e55-acd4-0fd11ead4c71"/>
    <linearGradient id="uuid-0d704d85-1206-4785-bb30-4daeaecd2fab" x1="-10.268" y1="181.312" x2="25.893" y2="173.206" xlink:href="#uuid-d69e35b8-4c96-4e55-acd4-0fd11ead4c71"/>
    <linearGradient id="uuid-7c2c9026-f4be-46fc-947d-3bbd548d6d14" data-name="New Gradient Swatch copy 10" x1="39.194" y1="66.979" x2="301.56" y2="87.628" gradientUnits="userSpaceOnUse">
      <stop offset=".035" stop-color="#9d9eb3"/>
      <stop offset=".581" stop-color="#d4d1d8"/>
      <stop offset="1" stop-color="#eeebf2"/>
    </linearGradient>
    <linearGradient id="uuid-3e4111c9-e12d-47bb-ab1f-d5c833efb770" data-name="New Gradient Swatch copy 10" x1="38.852" y1="74.843" x2="87.208" y2="64.003" xlink:href="#uuid-7c2c9026-f4be-46fc-947d-3bbd548d6d14"/>
    <linearGradient id="uuid-1bfb762c-4e14-4d79-9b1f-8f093eaf9d80" data-name="New Gradient Swatch copy 10" x1="66.474" y1="-12.672" x2="56.342" y2="6.638" xlink:href="#uuid-7c2c9026-f4be-46fc-947d-3bbd548d6d14"/>
    <linearGradient id="uuid-c321ad28-271b-48ea-8ada-6a7ff46589db" data-name="New Gradient Swatch copy 10" x1="37.403" y1="89.731" x2="299.787" y2="110.381" xlink:href="#uuid-7c2c9026-f4be-46fc-947d-3bbd548d6d14"/>
    <linearGradient id="uuid-eeffabc0-cacf-491d-870e-92221207b9a0" data-name="New Gradient Swatch copy 10" x1="-112.646" y1="121.403" x2="175.946" y2="56.71" xlink:href="#uuid-7c2c9026-f4be-46fc-947d-3bbd548d6d14"/>
    <linearGradient id="uuid-8fe762ee-fbd6-4e86-b018-40a4ab1473ae" data-name="New Gradient Swatch copy 10" x1="66.474" y1="-12.672" x2="56.342" y2="6.638" xlink:href="#uuid-7c2c9026-f4be-46fc-947d-3bbd548d6d14"/>
    <linearGradient id="uuid-58ea550f-cca9-45b8-8b8e-f54e0e88b13d" data-name="New Gradient Swatch copy 10" x1="879.441" y1="-118.74" x2="1163.099" y2="-215.926" gradientTransform="translate(-1129.83 276.926) rotate(1.252) scale(1.135 .881) skewX(-15.645)" xlink:href="#uuid-7c2c9026-f4be-46fc-947d-3bbd548d6d14"/>
    <linearGradient id="uuid-881d456b-3143-4e03-9d33-91abc23647e0" data-name="New Gradient Swatch copy 10" x1="1008.242" y1="-179.847" x2="998.788" y2="-161.831" gradientTransform="translate(-1129.83 276.926) rotate(1.252) scale(1.135 .881) skewX(-15.645)" xlink:href="#uuid-7c2c9026-f4be-46fc-947d-3bbd548d6d14"/>
    <linearGradient id="uuid-b466349f-5679-473c-9dc6-3b8f830d1965" data-name="New Gradient Swatch copy 10" x1="126.555" y1="109.678" x2="408.357" y2="180.533" xlink:href="#uuid-7c2c9026-f4be-46fc-947d-3bbd548d6d14"/>
    <linearGradient id="uuid-67edb319-cf3e-4300-bd03-98c46ae9c974" data-name="New Gradient Swatch copy 10" x1="121.034" y1="121.836" x2="169.39" y2="110.996" xlink:href="#uuid-7c2c9026-f4be-46fc-947d-3bbd548d6d14"/>
    <linearGradient id="uuid-228230e9-c076-49f2-885a-d23baf55de3b" data-name="New Gradient Swatch copy 10" x1="148.655" y1="34.321" x2="138.524" y2="53.629" xlink:href="#uuid-7c2c9026-f4be-46fc-947d-3bbd548d6d14"/>
    <linearGradient id="uuid-3fafbc1b-184a-4723-beb8-7b3b44c4bd1d" data-name="New Gradient Swatch copy 10" x1="119.752" y1="136.731" x2="401.57" y2="207.59" xlink:href="#uuid-7c2c9026-f4be-46fc-947d-3bbd548d6d14"/>
    <linearGradient id="uuid-74472a58-0f25-485c-8525-cb6027919cf3" data-name="New Gradient Swatch copy 10" x1="-30.466" y1="168.396" x2="258.129" y2="103.703" xlink:href="#uuid-7c2c9026-f4be-46fc-947d-3bbd548d6d14"/>
    <linearGradient id="uuid-03ad411f-e1bb-4915-87d7-71d56d1c46c6" data-name="New Gradient Swatch copy 10" x1="148.655" y1="34.321" x2="138.524" y2="53.629" xlink:href="#uuid-7c2c9026-f4be-46fc-947d-3bbd548d6d14"/>
    <linearGradient id="uuid-73233ab1-5a05-4bc3-b664-0a3d09c08be6" x1="170.315" y1="192.016" x2="142.759" y2="164.076" xlink:href="#uuid-d69e35b8-4c96-4e55-acd4-0fd11ead4c71"/>
    <linearGradient id="uuid-df7b9d69-f45d-4df9-a8f0-8a005fb056a6" x1="138.817" y1="187.887" x2="175.453" y2="179.675" xlink:href="#uuid-d69e35b8-4c96-4e55-acd4-0fd11ead4c71"/>
    <linearGradient id="uuid-41615aa7-7f43-48da-b110-419b9a784681" x1="105.197" y1="228.729" x2="71.019" y2="205.56" xlink:href="#uuid-d69e35b8-4c96-4e55-acd4-0fd11ead4c71"/>
    <linearGradient id="uuid-73292f16-246a-4aec-9c29-f06eb4738797" x1="71.728" y1="228.166" x2="107.887" y2="220.06" xlink:href="#uuid-d69e35b8-4c96-4e55-acd4-0fd11ead4c71"/>
    <linearGradient id="uuid-d536b44c-1ecf-4a92-823b-76cd205e6233" data-name="New Gradient Swatch copy 10" x1="106.093" y1="161.776" x2="81.799" y2="113.998" xlink:href="#uuid-7c2c9026-f4be-46fc-947d-3bbd548d6d14"/>
    <linearGradient id="uuid-5282a428-11d5-40b2-9ea1-36a30a69c19e" data-name="New Gradient Swatch copy 10" x1="-89.206" y1="110.055" x2="439.159" y2="-8.387" gradientTransform="translate(-78.666 -44.13) rotate(29.851) scale(.955 1.047) skewX(39.83)" xlink:href="#uuid-7c2c9026-f4be-46fc-947d-3bbd548d6d14"/>
    <linearGradient id="uuid-e4512dbc-c938-433b-a3c8-66a26cb7e706" data-name="New Gradient Swatch copy 10" x1="33.87" y1="-5.182" x2="134.95" y2="118.691" gradientTransform="translate(9.489 4.201) rotate(1.748) scale(1.111 .9) skewX(-12.18)" xlink:href="#uuid-7c2c9026-f4be-46fc-947d-3bbd548d6d14"/>
    <linearGradient id="uuid-f0c951a5-95ef-4ad9-b6dd-2456999dedfa" data-name="New Gradient Swatch copy 10" x1="-64.838" y1="67.852" x2="463.526" y2="-50.59" gradientTransform="translate(-78.666 -44.13) rotate(29.851) scale(.955 1.047) skewX(39.83)" xlink:href="#uuid-7c2c9026-f4be-46fc-947d-3bbd548d6d14"/>
    <radialGradient id="uuid-b9dedc1d-23a1-4d4f-a20a-fa287aae6f8c" data-name="Radial Gradient 1" cx="129.746" cy="95.455" fx="129.746" fy="95.455" r="31.653" gradientUnits="userSpaceOnUse">
      <stop offset="0" stop-color="#fff"/>
      <stop offset="1" stop-color="#000"/>
    </radialGradient>
    <radialGradient id="uuid-d6775d51-2188-4567-b010-cb5376398073" data-name="Radial Gradient 1" cx="135.417" cy="58.275" fx="135.417" fy="58.275" r="34.202" xlink:href="#uuid-b9dedc1d-23a1-4d4f-a20a-fa287aae6f8c"/>
    <linearGradient id="uuid-b9ad6b37-df8e-4398-80e6-63c06ad52b84" data-name="New Gradient Swatch copy 8" x1="-8.08" y1="82.81" x2="142.91" y2="81.145" gradientUnits="userSpaceOnUse">
      <stop offset=".035" stop-color="#ffa98c"/>
      <stop offset=".317" stop-color="#feb892"/>
      <stop offset=".86" stop-color="#fee0a3"/>
      <stop offset="1" stop-color="#feeca8"/>
    </linearGradient>
    <linearGradient id="uuid-693b9bb1-ceb5-4064-8af2-bdb3e2f886a1" data-name="New Gradient Swatch copy 25" x1="26.652" y1="79.534" x2="134.57" y2="84.527" gradientUnits="userSpaceOnUse">
      <stop offset="0" stop-color="#25054d"/>
      <stop offset="1" stop-color="#45108a"/>
    </linearGradient>
    <radialGradient id="uuid-d3959181-5179-424b-aac4-3d6a5117e7a8" data-name="Radial Gradient 1" cx="95.332" cy="69.042" fx="95.332" fy="69.042" r="26.579" xlink:href="#uuid-b9dedc1d-23a1-4d4f-a20a-fa287aae6f8c"/>
    <linearGradient id="uuid-a440d2eb-f237-4c79-b406-8cfde87328d7" data-name="New Gradient Swatch copy 25" x1="27.718" y1="56.441" x2="135.643" y2="61.434" xlink:href="#uuid-693b9bb1-ceb5-4064-8af2-bdb3e2f886a1"/>
    <linearGradient id="uuid-187f3c65-c182-4dda-a84f-35aab8dc3e8c" data-name="New Gradient Swatch copy 25" x1="27.308" y1="65.322" x2="135.218" y2="70.314" xlink:href="#uuid-693b9bb1-ceb5-4064-8af2-bdb3e2f886a1"/>
    <linearGradient id="uuid-72521fae-4df8-4575-bfab-edce27856856" data-name="New Gradient Swatch copy 25" x1="26.973" y1="72.455" x2="134.902" y2="77.449" xlink:href="#uuid-693b9bb1-ceb5-4064-8af2-bdb3e2f886a1"/>
    <linearGradient id="uuid-789e0ffe-9e2f-4555-ab96-9a5ddbb0875b" data-name="New Gradient Swatch copy 25" x1="26.582" y1="80.966" x2="134.505" y2="85.959" xlink:href="#uuid-693b9bb1-ceb5-4064-8af2-bdb3e2f886a1"/>
    <linearGradient id="uuid-4e18fbcb-297f-45cf-8cbb-cc91b8d87f1b" data-name="New Gradient Swatch copy 25" x1="26.239" y1="88.388" x2="134.161" y2="93.381" xlink:href="#uuid-693b9bb1-ceb5-4064-8af2-bdb3e2f886a1"/>
    <linearGradient id="uuid-b57a0b43-c64f-44a3-9f9d-fccd5bd646ad" data-name="New Gradient Swatch copy 25" x1="26.829" y1="75.664" x2="134.752" y2="80.657" xlink:href="#uuid-693b9bb1-ceb5-4064-8af2-bdb3e2f886a1"/>
    <linearGradient id="uuid-94aa5b88-0c46-4a9d-a848-03c5187739ce" data-name="New Gradient Swatch copy 25" x1="26.668" y1="79.174" x2="134.586" y2="84.167" xlink:href="#uuid-693b9bb1-ceb5-4064-8af2-bdb3e2f886a1"/>
    <linearGradient id="uuid-157b59b8-93be-4b5f-90ed-1208f5302962" data-name="New Gradient Swatch copy 25" x1="26.499" y1="82.763" x2="134.431" y2="87.756" xlink:href="#uuid-693b9bb1-ceb5-4064-8af2-bdb3e2f886a1"/>
    <linearGradient id="uuid-cc3706ec-9659-4b3b-86d6-28bf7ecea15b" data-name="New Gradient Swatch copy 25" x1="26.338" y1="86.254" x2="134.265" y2="91.247" xlink:href="#uuid-693b9bb1-ceb5-4064-8af2-bdb3e2f886a1"/>
    <linearGradient id="uuid-690d3028-fbc5-4ba0-9a7b-fb2e0b4089d1" data-name="New Gradient Swatch copy 25" x1="26.225" y1="88.803" x2="134.137" y2="93.796" xlink:href="#uuid-693b9bb1-ceb5-4064-8af2-bdb3e2f886a1"/>
    <linearGradient id="uuid-28d2c576-8095-4c93-8c42-5f5e8030878b" data-name="New Gradient Swatch copy 25" x1="26.043" y1="92.723" x2="133.957" y2="97.716" xlink:href="#uuid-693b9bb1-ceb5-4064-8af2-bdb3e2f886a1"/>
    <linearGradient id="uuid-680fac0e-92e0-4f7c-a911-0f88eaeb5956" data-name="New Gradient Swatch copy 25" x1="25.899" y1="95.801" x2="133.816" y2="100.793" xlink:href="#uuid-693b9bb1-ceb5-4064-8af2-bdb3e2f886a1"/>
    <linearGradient id="uuid-6351c345-a8b1-4cc6-a706-c47da373cf38" data-name="New Gradient Swatch copy 25" x1="25.719" y1="99.809" x2="133.627" y2="104.801" xlink:href="#uuid-693b9bb1-ceb5-4064-8af2-bdb3e2f886a1"/>
    <linearGradient id="uuid-35887e19-0eb4-48af-878f-5a30ed3c1aab" data-name="New Gradient Swatch copy 25" x1="25.583" y1="102.503" x2="133.512" y2="107.497" xlink:href="#uuid-693b9bb1-ceb5-4064-8af2-bdb3e2f886a1"/>
    <linearGradient id="uuid-6a7402de-b7bf-465b-a339-9e4e7121616f" data-name="New Gradient Swatch copy 25" x1="25.435" y1="105.334" x2="133.389" y2="110.328" xlink:href="#uuid-693b9bb1-ceb5-4064-8af2-bdb3e2f886a1"/>
    <linearGradient id="uuid-e490063a-6cc0-4fb5-ad79-3af69a9aa227" data-name="New Gradient Swatch copy 25" x1="25.333" y1="107.881" x2="133.262" y2="112.874" xlink:href="#uuid-693b9bb1-ceb5-4064-8af2-bdb3e2f886a1"/>
    <linearGradient id="uuid-0c832360-b2d6-4e64-a8f3-4c7d8cb412bd" data-name="New Gradient Swatch copy 25" x1="25.175" y1="111.47" x2="133.091" y2="116.462" xlink:href="#uuid-693b9bb1-ceb5-4064-8af2-bdb3e2f886a1"/>
  </defs>
  <g class="uuid-818ef53a-e553-4976-81b6-e7c433692733">
    <g id="uuid-18d1f377-8233-4737-8f9e-018fe1ac4cb5" data-name="Layer 2">
      <g id="uuid-ee99ac47-2799-4c7c-b0a3-01ea9bc2b196" data-name=" 1">
        <g>
          <g class="uuid-894bc340-42ff-4993-9120-9c399f7693e6">
            <polygon class="uuid-c97d238b-73e6-4ecc-ae80-3381ccc1eea4" points="77.134 135.205 75.552 145.367 84.695 140.103 86.277 129.94 77.134 135.205"/>
            <polygon class="uuid-e07c5080-c806-476b-bff5-f87023b541de" points="77.157 135.205 75.577 145.367 66.508 140.103 68.087 129.969 77.157 135.205"/>
          </g>
          <g class="uuid-894bc340-42ff-4993-9120-9c399f7693e6">
            <polygon class="uuid-2a694d27-940d-4d09-bdaf-404e19a555bb" points="9.077 175.492 14.782 184.438 23.925 179.174 18.22 170.228 9.077 175.492"/>
            <polygon class="uuid-5f094306-a4bf-4e75-a4d8-92a849d45fea" points="9.102 175.492 14.808 184.438 5.737 179.174 .032 170.255 9.102 175.492"/>
          </g>
          <g>
            <polygon class="uuid-3757d090-3675-40ce-9790-2a46f29f34fd" points="57.007 10.529 77.02 133.791 86.163 128.527 66.15 5.266 57.007 10.529"/>
            <polygon class="uuid-26b44f91-db02-4e89-b8ee-6f924ec75508" points="57.03 10.529 77.044 133.791 67.975 128.527 47.96 5.292 57.03 10.529"/>
            <polygon class="uuid-41061b69-1274-41a9-8378-16d304271fe2" points="47.96 5.292 57.03 10.529 66.15 5.266 57.03 0 47.96 5.292"/>
          </g>
          <g>
            <polygon class="uuid-146d3dc2-00a0-474e-9d5e-e62580c74b3f" points="57.007 10.529 9.044 174.227 18.189 168.963 66.15 5.266 57.007 10.529"/>
            <polygon class="uuid-b616222a-68c4-491e-99b0-8016adbd2beb" points="57.03 10.529 9.07 174.227 0 168.963 47.96 5.292 57.03 10.529"/>
            <polygon class="uuid-27ff1079-4394-4ee0-96be-e3c349bd9aaf" points="47.96 5.292 57.03 10.529 66.15 5.266 57.03 0 47.96 5.292"/>
          </g>
          <g>
            <polygon class="uuid-844ee4bf-77c7-4685-a9c7-5893008555df" points="93.25 181.346 91.822 185.043 19.201 143.708 20.624 140.018 93.25 181.346"/>
            <polygon class="uuid-2c396b94-7fa9-45d6-91c0-e6c9a249ae6a" points="20.624 140.018 93.25 181.346 98.436 178.408 25.793 137.069 20.624 140.018"/>
          </g>
          <g>
            <polygon class="uuid-3902b084-74f6-4eee-93ba-a604d94236dd" points="139.189 57.521 159.201 180.784 168.345 175.519 148.331 52.256 139.189 57.521"/>
            <polygon class="uuid-7d90ae8b-4937-4c2d-a6f6-b544f22f4348" points="139.212 57.521 159.227 180.784 150.156 175.519 130.142 52.285 139.212 57.521"/>
            <polygon class="uuid-9b1faab9-1a2c-40c0-9b9c-eaf24222731d" points="130.142 52.285 139.212 57.521 148.331 52.256 139.212 46.992 130.142 52.285"/>
          </g>
          <g>
            <polygon class="uuid-2ec554a3-fbdd-4326-85e8-74c3c3f82aa1" points="139.189 57.521 91.226 221.22 100.37 215.953 148.331 52.256 139.189 57.521"/>
            <polygon class="uuid-c871eef8-cbcc-4e01-8816-d2e83916e98d" points="139.212 57.521 91.252 221.22 82.181 215.953 130.142 52.285 139.212 57.521"/>
            <polygon class="uuid-ec7fe1b0-49f5-4ece-9c06-e35283eddb55" points="130.142 52.285 139.212 57.521 148.331 52.256 139.212 46.992 130.142 52.285"/>
          </g>
          <g class="uuid-894bc340-42ff-4993-9120-9c399f7693e6">
            <polygon class="uuid-7182bd70-b338-4440-9419-f2971473aa23" points="159.129 182.059 157.548 192.222 166.691 186.957 168.272 176.795 159.129 182.059"/>
            <polygon class="uuid-3e49e8e0-435a-4ec5-ba36-ca4ee25b5205" points="159.153 182.059 157.573 192.222 148.503 186.957 150.084 176.823 159.153 182.059"/>
          </g>
          <g class="uuid-894bc340-42ff-4993-9120-9c399f7693e6">
            <polygon class="uuid-53fd1d8a-9604-4545-982a-62ad94bcd5c3" points="91.073 222.348 96.778 231.293 105.921 226.029 100.216 217.082 91.073 222.348"/>
            <polygon class="uuid-f7a4946a-2586-4a98-9018-baf93e164ef6" points="91.097 222.348 96.803 231.293 87.732 226.029 82.027 217.109 91.097 222.348"/>
          </g>
          <g>
            <path class="uuid-75672a6c-2dbe-48c5-b798-d28035a16d6e" d="m124.21,152.32L16.132,90.103c-4.562-2.618-6.885-9.341-5.185-15.015l5.185-17.316c.863-2.879-2.623-3.044-.528-4.028.171-.079,5.562-2.045,5.737-2.11,1.909-.72,4.072-.575,6.129.607l108.08,62.216c4.562,2.62,6.885,9.343,5.186,15.017l-5.187,17.316c-.929,3.104-2.868,5.251-5.181,6.129-.074.029-5.573,2.091-5.648,2.115-1.859.636,1.479-1.571-.51-2.712Z"/>
            <path class="uuid-0348fed3-8346-43f5-983c-83b61ff74c55" d="m118.755,154.363L10.677,92.146c-4.565-2.618-6.887-9.341-5.186-15.015l5.186-17.316c1.698-5.674,6.775-8.151,11.339-5.531l108.078,62.217c4.563,2.619,6.884,9.342,5.184,15.016l-5.184,17.315c-1.7,5.674-6.776,8.15-11.339,5.532Z"/>
            <path class="uuid-303534d5-5e8e-413c-858c-00343f2d23da" d="m137.229,108.846L29.151,46.629c-4.564-2.619-6.885-9.342-5.186-15.016l5.186-17.316c.863-2.88-2.622-3.044-.529-4.028.172-.08,5.562-2.046,5.736-2.111,1.911-.718,4.074-.574,6.133.607l108.078,62.218c4.564,2.618,6.884,9.341,5.185,15.015l-5.185,17.316c-.931,3.103-2.869,5.25-5.183,6.13-.075.028-5.571,2.089-5.647,2.113-1.86.637,1.477-1.571-.51-2.712Z"/>
            <path class="uuid-076a887a-5e5b-4be4-9400-33768b911ef3" d="m131.774,110.889L23.696,48.672c-4.565-2.619-6.885-9.342-5.188-15.016l5.188-17.314c1.699-5.674,6.775-8.151,11.338-5.533l108.078,62.219c4.565,2.617,6.885,9.34,5.186,15.014l-5.186,17.316c-1.697,5.674-6.774,8.151-11.338,5.531Z"/>
            <path class="uuid-d39f1fc4-a1ae-423b-bfa7-80f5c1493476" d="m130.942,116.145L22.862,53.926c-1.98-1.137-4.057-1.302-5.912-.67,1.428-.135,2.924.175,4.372,1.006l108.078,62.217c4.564,2.62,6.884,9.342,5.185,15.016l-5.185,17.316c-.835,2.79-2.49,4.8-4.495,5.818.547-.054,1.074-.195,1.594-.381,1.979-1.023,3.615-3.01,4.443-5.772l5.185-17.316c1.699-5.676-.623-12.397-5.185-15.016Z"/>
            <path class="uuid-94848b84-a873-4cfb-b541-5cb8412289cb" d="m143.962,72.67L35.884,10.453c-1.982-1.137-4.059-1.303-5.914-.672,1.427-.134,2.924.175,4.371,1.006l108.079,62.219c4.564,2.618,6.884,9.34,5.186,15.014l-5.186,17.317c-.836,2.789-2.489,4.801-4.495,5.817.547-.054,1.076-.195,1.594-.38,1.98-1.024,3.615-3.011,4.443-5.773l5.184-17.315c1.701-5.674-.619-12.396-5.184-15.016Z"/>
            <g>
              <polygon class="uuid-f71e7f2f-edaf-46c9-a9cf-5dd94ce09b28" points="114.919 143.75 19.559 89.022 41.097 17.779 136.458 72.508 114.919 143.75"/>
              <polygon class="uuid-bf4c006e-f746-429f-a9a3-d9dc35af7602" points="114.578 143.243 20.09 89.016 41.371 18.567 135.861 72.795 114.578 143.243"/>
              <polygon class="uuid-9d151923-732c-4dfd-aeb7-29ee6757e4bb" points="114.238 142.736 20.621 89.009 41.646 19.355 135.264 73.082 114.238 142.736"/>
              <polygon class="uuid-55e92500-fc62-4962-ac66-9efc73ffafb7" points="113.897 142.229 21.152 89.003 41.921 20.142 134.667 73.37 113.897 142.229"/>
              <polygon class="uuid-0d1ca2d9-8ec4-4787-b812-84c92cc7bb67" points="113.556 141.722 21.683 88.996 42.195 20.93 134.07 73.657 113.556 141.722"/>
              <polygon class="uuid-fbce1c5a-07f1-46ea-8f8c-64559a2fcb39" points="113.215 141.215 22.214 88.99 42.47 21.717 133.472 73.944 113.215 141.215"/>
              <polygon class="uuid-d69ffa52-3e07-4416-85e0-ae2572916173" points="112.875 140.708 22.745 88.983 42.745 22.505 132.875 74.231 112.875 140.708"/>
              <polygon class="uuid-b04101cc-8f23-4a84-97c6-621a3308b262" points="112.534 140.202 23.276 88.976 43.019 23.293 132.278 74.519 112.534 140.202"/>
              <polygon class="uuid-afc48724-97a0-4c24-900c-1cd25078107f" points="112.193 139.695 23.807 88.97 43.294 24.08 131.681 74.806 112.193 139.695"/>
              <polygon class="uuid-96c13292-1810-4d56-8b33-9636663fafe2" points="111.852 139.188 24.338 88.963 43.569 24.868 131.084 75.093 111.852 139.188"/>
              <polygon class="uuid-145ebb53-7d0c-4401-b4ad-c0f48946f6c7" points="111.512 138.681 24.869 88.957 43.844 25.656 130.487 75.381 111.512 138.681"/>
              <polygon class="uuid-6db701e8-b21e-4363-9392-c6ddc3a23b8b" points="111.171 138.174 25.4 88.95 44.118 26.443 129.89 75.668 111.171 138.174"/>
            </g>
            <polygon class="uuid-b4d5a7c2-6783-4d2d-8fd0-fc441c202f6d" points="112.653 141.957 20.41 89.02 40.542 21.796 132.785 74.734 112.653 141.957"/>
            <path class="uuid-c3a5e21a-d99f-4201-8d59-e407715c60e1" d="m44.319,30.307l81.498,46.773-16.863,56.308L27.456,86.614l16.863-56.308h0Zm-.916-2.297l-17.767,59.331,84.235,48.343,17.767-59.331L43.403,28.01h0Z"/>
            <polygon class="uuid-7971283c-8381-42a2-b079-6a563eb2290d" points="40.543 21.796 40.126 22.903 131.66 75.205 111.944 141.32 112.653 141.957 132.785 74.734 40.543 21.796"/>
            <g>
              <path class="uuid-2a1103de-ca60-4973-80a4-fd95b4d1be6c" d="m42.252,62.215c-.731-1.616-.786-3.459-.165-5.529l2.703-9.032c.05-.162.134-.27.256-.322.119-.051.258-.033.409.054l1.907,1.096c.15.085.26.21.326.369.066.158.074.319.025.481l-2.705,9.031c-.35,1.169-.353,2.197-.014,3.086.342.89.99,1.608,1.943,2.155.954.548,1.777.674,2.474.38.696-.294,1.219-1.024,1.567-2.194l2.705-9.031c.05-.162.137-.268.265-.315.129-.048.269-.029.42.059l1.908,1.095c.151.088.259.209.316.363.059.156.065.315.015.476l-2.704,9.032c-.62,2.071-1.599,3.321-2.933,3.75-1.336.431-2.938.11-4.803-.962-1.879-1.078-3.186-2.426-3.917-4.041Z"/>
              <path class="uuid-0c9d4e27-927d-4b4e-9f64-ab09dc12392a" d="m55.942,71.424c-.065-.158-.076-.312-.033-.461l4.327-14.444c.048-.163.134-.271.255-.323.12-.05.256-.034.41.053l1.615.93c.264.148.426.391.489.723l2.979,13.255,2.896-9.676c.05-.161.134-.27.255-.321.12-.052.257-.034.41.053l1.782,1.023c.152.088.262.21.327.369.065.16.075.32.025.483l-4.319,14.423c-.048.162-.137.269-.266.316-.126.048-.262.031-.398-.047l-1.638-.941c-.277-.159-.447-.403-.51-.733l-3.025-13.022-2.838,9.475c-.043.147-.127.248-.246.3-.121.053-.258.035-.41-.053l-1.783-1.023c-.139-.08-.242-.2-.307-.358Z"/>
              <path class="uuid-d57bd799-4c66-4eb7-b297-047ae0a5f11b" d="m71.12,80.135c-.066-.158-.078-.313-.033-.462l4.327-14.444c.048-.164.134-.269.255-.322.12-.051.256-.035.408.054l5.059,2.903c4.079,2.341,5.557,5.546,4.435,9.616-.23.875-.39,1.46-.477,1.754-.085.282-.269.845-.554,1.687-.676,2.038-1.654,3.268-2.938,3.684-1.285.416-2.954.033-5.014-1.148l-5.162-2.963c-.139-.08-.242-.198-.307-.358Zm6.137.686c1.146.658,2.058.861,2.733.607.675-.253,1.216-1.008,1.626-2.266.294-.871.475-1.417.54-1.64.07-.236.22-.792.45-1.666.336-1.229.318-2.282-.05-3.161-.369-.879-1.133-1.651-2.294-2.318l-2.529-1.451-3.109,10.384,2.633,1.511Z"/>
              <path class="uuid-b58d3110-3c31-4d8a-8a49-ae09b0bc50d4" d="m86.214,88.796c-.066-.158-.076-.312-.033-.461l4.327-14.444c.048-.163.134-.27.253-.322.122-.051.258-.035.412.054l9.142,5.248c.153.087.261.21.327.369.066.159.075.319.025.483l-.443,1.486c-.051.164-.137.264-.264.305-.126.041-.264.016-.417-.07l-6.8-3.902-1.162,3.883,6.344,3.641c.153.087.262.211.327.369.065.159.075.321.025.483l-.419,1.397c-.047.164-.137.265-.261.305-.126.042-.264.018-.417-.07l-6.344-3.641-1.203,4.018,6.967,3.998c.152.087.262.205.329.356.068.153.078.31.029.473l-.452,1.509c-.048.162-.135.266-.261.305-.126.041-.265.018-.417-.07l-9.309-5.342c-.139-.08-.242-.199-.307-.358Z"/>
              <path class="uuid-83bf4029-0181-4c8f-aa23-ce79f959a48f" d="m99.649,96.509c-.065-.159-.077-.314-.032-.463l4.327-14.444c.047-.163.133-.27.254-.322.121-.053.257-.034.41.055l5.369,3.08c1.701.977,2.904,2.16,3.612,3.557.708,1.394.83,2.866.364,4.421-.324,1.08-.836,1.847-1.539,2.302-.703.454-1.539.596-2.508.421l1.312,7.383c.015.112.012.206-.011.28-.04.134-.118.217-.233.255-.117.038-.231.024-.342-.04l-1.908-1.094c-.221-.127-.377-.282-.469-.463-.09-.184-.158-.391-.201-.625l-1.078-6.781-2.842-1.63-1.595,5.325c-.044.149-.129.246-.259.295-.127.047-.267.027-.42-.059l-1.906-1.096c-.139-.08-.24-.198-.307-.356Zm8.125-4.984c.83.476,1.512.636,2.044.481.53-.152.911-.607,1.136-1.361.227-.755.192-1.454-.101-2.1-.292-.644-.853-1.204-1.682-1.681l-2.884-1.655-1.395,4.661,2.881,1.654Z"/>
              <path class="uuid-802e84cc-f4b5-422b-a056-920a4e535e72" d="m35.476,78.036c-.299-.756-.335-1.577-.105-2.464.049-.19.135-.495.262-.915.129-.426.224-.734.289-.924.291-.85.735-1.395,1.332-1.637.598-.243,1.324-.119,2.179.372.573.33,1.027.717,1.36,1.163.335.445.551.902.647,1.369.098.468.098.906-.002,1.317-.019.062-.055.101-.107.113-.054.014-.109.005-.168-.029l-.483-.275c-.063-.038-.108-.085-.138-.143-.028-.055-.04-.131-.034-.225.048-.594-.038-1.078-.26-1.456-.222-.377-.577-.706-1.068-.987-1.117-.643-1.9-.31-2.347,1.002-.061.182-.15.465-.265.851-.116.386-.201.68-.255.884-.353,1.354.031,2.353,1.15,2.996.482.277.901.393,1.254.346.353-.049.663-.302.93-.763.042-.072.09-.114.141-.126.047-.013.105,0,.169.037l.483.277c.057.033.102.08.131.143.032.062.037.123.019.186-.14.387-.363.698-.67.933-.308.235-.693.347-1.158.335-.464-.013-.981-.182-1.555-.511-.854-.492-1.433-1.114-1.729-1.87Z"/>
              <path class="uuid-b7cf2c53-92d2-4915-9fcf-ae752d1cdd04" d="m42.138,81.906c-.316-.732-.345-1.582-.086-2.547.057-.21.141-.506.254-.883.112-.379.203-.667.269-.861.306-.924.769-1.488,1.386-1.7.617-.21,1.328-.086,2.133.376.803.463,1.369,1.068,1.695,1.82.324.751.359,1.602.104,2.555-.106.406-.188.699-.239.878-.053.172-.147.462-.283.866-.311.937-.764,1.51-1.357,1.721-.596.212-1.31.078-2.148-.402-.836-.48-1.411-1.087-1.727-1.822Zm3.369,1.174c.408-.158.73-.573.962-1.246.136-.406.225-.678.267-.816.045-.152.122-.431.228-.839.18-.702.166-1.311-.042-1.826-.207-.514-.569-.921-1.083-1.217-.514-.295-.981-.362-1.393-.205-.412.159-.731.578-.959,1.255-.064.196-.15.47-.256.819-.104.346-.184.624-.237.833-.187.701-.175,1.306.033,1.817.208.512.573.915,1.095,1.215.514.296.977.365,1.385.209Z"/>
              <path class="uuid-2e3f2e83-5a69-4d8a-bc60-e565185d055c" d="m48.317,86.083c-.025-.065-.027-.134-.006-.202l2.02-6.745c.022-.076.06-.126.111-.148.051-.023.11-.015.174.022l.426.242c.065.038.107.078.132.125.025.045.046.1.066.159l1.639,7.186,1.565-5.226c.023-.076.062-.125.117-.147.056-.02.113-.014.179.025l.435.248c.07.041.121.096.148.166.029.066.032.14.01.215l-2.018,6.734c-.02.069-.059.116-.116.14-.058.025-.117.019-.181-.018l-.435-.251c-.109-.062-.172-.154-.186-.275l-1.654-7.136-1.553,5.186c-.022.066-.059.114-.113.133-.056.021-.115.014-.179-.023l-.444-.256c-.065-.035-.109-.088-.135-.155Z"/>
              <path class="uuid-46aefd09-9e97-4d00-8e1d-7e4814789eb4" d="m55.995,90.375c-.336-.401-.561-.809-.675-1.217-.116-.409-.129-.785-.041-1.131.017-.056.05-.093.101-.111.052-.019.106-.012.164.022l.473.272c.117.065.175.182.18.345-.028.323.061.666.273,1.034.209.367.57.696,1.076.988.548.315.988.444,1.32.394.332-.052.553-.26.662-.626.07-.232.062-.464-.025-.69-.086-.227-.242-.474-.47-.736-.226-.263-.575-.627-1.047-1.091-.45-.436-.796-.823-1.036-1.164-.242-.34-.398-.678-.472-1.016-.071-.336-.052-.696.065-1.081.11-.372.303-.651.579-.837.272-.186.611-.262,1.017-.227.403.034.849.191,1.331.466.502.288.902.631,1.205,1.025.299.395.501.787.602,1.182.101.393.113.735.04,1.033-.019.061-.054.102-.102.121-.053.019-.107.014-.166-.021l-.481-.278c-.052-.027-.095-.073-.129-.133-.036-.06-.052-.131-.051-.212.051-.316-.032-.649-.243-.997-.215-.35-.522-.64-.928-.872-.438-.25-.812-.358-1.125-.324-.311.034-.522.231-.629.589-.071.24-.071.473.004.691.073.22.216.461.43.72.211.259.533.601.964,1.024.498.48.878.892,1.142,1.236.263.344.434.683.515,1.016.081.333.064.693-.052,1.079-.193.646-.574,1.02-1.143,1.116-.568.097-1.245-.078-2.031-.53-.528-.303-.959-.653-1.295-1.058Z"/>
              <path class="uuid-18d2a7ce-decd-4656-815b-4e65949b3727" d="m62.877,94.439c-.027-.068-.032-.137-.013-.206l1.829-6.104-1.862-1.069c-.065-.038-.111-.09-.139-.159-.029-.068-.033-.138-.012-.205l.119-.403c.024-.075.062-.125.119-.145.053-.022.114-.013.178.024l4.633,2.658c.071.041.119.094.145.16.025.067.025.14.003.215l-.12.403c-.021.069-.058.113-.114.134-.055.02-.115.014-.178-.025l-1.855-1.063-1.828,6.105c-.021.068-.06.111-.119.131s-.119.011-.184-.026l-.463-.267c-.064-.036-.111-.09-.14-.158Z"/>
              <path class="uuid-bb72371f-e314-40b6-aab6-bdeb71ebb452" d="m67.206,96.926c-.025-.068-.026-.136-.006-.204l2.02-6.745c.022-.077.061-.126.111-.147.054-.024.111-.017.175.021l2.355,1.352c.733.419,1.253.935,1.558,1.54.305.606.351,1.262.141,1.965-.157.523-.408.883-.753,1.079-.345.197-.756.235-1.233.116l.66,3.609c.008.054.005.098-.004.131-.018.056-.05.093-.102.112-.051.02-.103.013-.154-.015l-.424-.245c-.097-.056-.166-.123-.205-.202-.041-.08-.071-.177-.088-.293l-.629-3.458-1.716-.986-.804,2.686c-.021.069-.061.112-.121.133-.058.019-.117.009-.184-.028l-.462-.266c-.065-.036-.11-.089-.136-.154Zm3.58-2.287c.973.559,1.59.399,1.852-.476.262-.873-.096-1.591-1.065-2.148l-1.62-.931-.786,2.625,1.62.93Z"/>
              <path class="uuid-3d3b2797-e164-48d5-ad2d-970b056a039d" d="m74.483,100.459c-.307-.737-.316-1.591-.025-2.562l1.256-4.194c.023-.075.062-.125.114-.148.051-.022.11-.015.174.022l.462.267c.072.04.121.094.148.163.029.069.032.142.01.216l-1.262,4.215c-.203.675-.207,1.262-.012,1.762.193.498.561.902,1.101,1.213.534.306.997.377,1.391.211.392-.167.688-.582.888-1.252l1.263-4.215c.023-.074.062-.124.113-.146.052-.022.112-.014.184.027l.464.266c.064.036.11.09.139.158.027.07.03.142.008.217l-1.256,4.193c-.291.972-.732,1.567-1.322,1.789-.589.223-1.299.097-2.131-.381-.828-.477-1.398-1.083-1.705-1.82Z"/>
              <path class="uuid-518c76e1-271e-4ba2-9024-6b2b236e6d5f" d="m81.333,104.353c-.299-.756-.335-1.576-.105-2.463.048-.189.135-.495.261-.914.128-.427.224-.735.29-.925.291-.85.734-1.394,1.332-1.637.598-.244,1.323-.119,2.178.371.574.331,1.027.717,1.361,1.163.334.445.549.903.646,1.37.098.467.096.906-.004,1.316-.019.064-.053.101-.107.113-.053.015-.109.006-.166-.027l-.483-.277c-.065-.038-.111-.084-.138-.142-.029-.058-.041-.132-.035-.226.049-.592-.037-1.078-.26-1.455-.223-.379-.578-.707-1.068-.988-1.119-.642-1.9-.309-2.346,1-.061.185-.151.468-.268.854-.115.387-.199.68-.253.883-.353,1.356.031,2.354,1.15,2.996.483.277.902.393,1.255.346.353-.047.662-.302.928-.762.044-.071.092-.113.14-.125.05-.013.106,0,.171.036l.483.277c.058.032.103.081.132.142.031.062.036.123.019.186-.14.387-.363.699-.671.935-.308.234-.694.345-1.158.335-.464-.013-.98-.184-1.554-.512-.855-.49-1.433-1.115-1.729-1.871Z"/>
              <path class="uuid-513d5cb5-9293-4201-bbb6-ed02c62e8d1b" d="m88.899,109.374c-.029-.069-.033-.138-.012-.205l1.828-6.106-1.863-1.068c-.065-.037-.111-.091-.137-.158-.031-.069-.033-.139-.014-.208l.121-.401c.022-.076.061-.125.117-.146.053-.021.113-.012.178.025l4.635,2.659c.068.039.118.095.144.16.026.068.026.139.003.215l-.119.402c-.022.068-.061.114-.115.135-.055.022-.115.012-.18-.024l-1.853-1.064-1.829,6.105c-.022.069-.061.113-.118.132-.058.019-.12.009-.183-.026l-.465-.267c-.065-.037-.109-.09-.139-.158Z"/>
              <path class="uuid-2b077279-bf1b-4210-b4d0-9542c0c5c03b" d="m93.228,111.858c-.025-.067-.027-.136-.006-.204l2.023-6.756c.02-.068.056-.113.108-.138.052-.022.109-.015.174.022l.483.277c.07.039.12.092.145.156.026.063.029.134.006.209l-2.022,6.755c-.022.067-.06.114-.114.134-.057.022-.115.014-.18-.023l-.482-.277c-.064-.036-.109-.09-.135-.155Z"/>
              <path class="uuid-b26b1cb9-5c6e-4b4e-ba42-fe0f1e6397d9" d="m96.661,113.199c-.316-.735-.345-1.586-.086-2.549.057-.21.141-.504.255-.884.112-.38.202-.665.269-.862.306-.922.768-1.488,1.386-1.698.616-.21,1.327-.085,2.13.376.807.463,1.371,1.068,1.697,1.82.324.752.359,1.604.106,2.554-.108.407-.19.7-.241.878-.053.174-.146.464-.282.868-.311.936-.764,1.51-1.358,1.721-.596.212-1.31.077-2.148-.403-.835-.48-1.411-1.086-1.727-1.82Zm3.37,1.17c.409-.155.729-.571.961-1.245.138-.404.226-.677.268-.816.045-.149.122-.43.227-.835.181-.705.167-1.314-.042-1.829-.207-.515-.567-.919-1.084-1.214-.515-.297-.977-.364-1.392-.207-.412.16-.731.578-.958,1.255-.065.196-.151.469-.257.821-.103.344-.181.62-.238.832-.186.699-.174,1.306.034,1.816.209.51.573.915,1.095,1.215.516.296.978.365,1.386.207Z"/>
              <path class="uuid-c39240a4-0ebf-4dd3-99ae-2d158ee50c0c" d="m102.841,117.375c-.025-.066-.027-.135-.006-.204l2.02-6.745c.022-.075.06-.125.111-.148.054-.022.11-.015.176.022l.424.245c.065.035.108.078.133.124.023.045.045.099.065.159l1.636,7.184,1.566-5.227c.023-.075.062-.123.117-.143.056-.022.114-.014.18.023l.435.249c.069.041.12.097.147.164.029.068.031.142.008.217l-2.016,6.734c-.022.069-.059.116-.115.141-.056.023-.117.018-.181-.02l-.434-.249c-.109-.063-.172-.155-.188-.278l-1.653-7.133-1.554,5.186c-.02.068-.058.113-.113.134-.056.022-.115.013-.179-.023l-.444-.255c-.065-.038-.109-.089-.135-.156Z"/>
            </g>
          </g>
        </g>
      </g>
    </g>
  </g>
</svg>